<svg width="133" height="97" viewBox="0 0 133 97" fill="none" xmlns="http://www.w3.org/2000/svg">
<g id="Frame" clip-path="url(#clip0_1305_5154)">
<path id="Vector" d="M87.4193 7.98859C87.2842 5.10217 85.9535 2.50032 83.4543 0.250813L83.2922 0.101749C83.1233 -0.0473149 82.8734 -0.0337636 82.7248 0.142403L75.2406 8.88975C75.0852 9.07269 74.8083 9.07269 74.6462 8.89652L69.0263 2.75102C68.8709 2.58163 68.6007 2.58163 68.4386 2.75102L62.8187 8.89652C62.6566 9.07269 62.3796 9.06592 62.2243 8.88975L54.7536 0.142403C54.6117 -0.026988 54.3551 -0.0405393 54.1862 0.101749L54.0241 0.250813C51.5248 2.50032 50.1874 5.10217 50.0591 7.98859C49.8092 13.3752 53.8147 17.7658 53.9836 17.9555L54.0849 18.064C54.1997 18.1859 54.3821 18.2266 54.5307 18.1588L58.4011 16.4785C58.6578 16.37 58.7186 16.038 58.5295 15.8348L58.3133 15.6112C55.7263 12.9077 55.0846 10.4481 55.0103 8.83554C54.99 8.46966 55.4493 8.27994 55.6992 8.55774L62.4202 15.9093C62.5755 16.0855 62.8525 16.0787 63.0078 15.9093L68.4386 9.85866C68.594 9.6825 68.8709 9.6825 69.0263 9.85866L74.457 15.9093C74.6124 16.0855 74.8893 16.0855 75.0447 15.9093L81.7656 8.55774C82.0156 8.28672 82.4749 8.46966 82.4546 8.83554C82.3803 10.4481 81.7319 12.9077 79.1448 15.6112L78.9287 15.8348C78.7395 16.038 78.8003 16.3633 79.057 16.4785L82.9274 18.1588C83.0828 18.2266 83.2652 18.1859 83.3732 18.064L83.4746 17.9555C83.6637 17.7658 87.6692 13.3752 87.4193 7.98859Z" fill="white"/>
<g id="Group">
<g id="Group_2">
<path id="Vector_2" d="M102.543 42.2798V44.4684C102.543 45.0104 102.111 45.4441 101.57 45.4441H96.7272C96.7677 44.9291 96.7812 44.4142 96.7812 43.8924C96.7812 43.0184 96.7272 42.1511 96.6259 41.2974H101.564C102.104 41.2974 102.543 41.7378 102.543 42.2798Z" fill="#2B2B2B"/>
<path id="Vector_3" d="M102.543 49.794V51.8673C102.543 52.4433 102.077 52.904 101.509 52.904H94.8696C95.4573 51.5895 95.9234 50.2005 96.2476 48.7573H101.509C102.077 48.7573 102.543 49.2248 102.543 49.794Z" fill="#2B2B2B"/>
<path id="Vector_4" d="M102.543 34.9622V36.8729C102.543 37.4895 102.043 37.9909 101.428 37.9909H95.9842C95.5857 36.5477 95.0453 35.1587 94.3766 33.8442H101.435C102.043 33.8442 102.543 34.3456 102.543 34.9622Z" fill="#2B2B2B"/>
</g>
</g>
<g id="Group_3">
<g id="Group_4">
<path id="Vector_5" d="M45.2969 44.7803C45.2969 45.4781 45.2564 46.1625 45.1821 46.8333H31.8821C31.0986 46.8333 30.4636 46.1964 30.4636 45.4104V44.1162C30.4636 43.3303 31.0986 42.6934 31.8821 42.6934H45.1821C45.2564 43.3777 45.2969 44.0756 45.2969 44.7803Z" fill="#2B2B2B"/>
<path id="Vector_6" d="M44.8512 48.7711C44.5202 50.2211 44.0068 51.6101 43.3381 52.9043H31.8214C31.0648 52.9043 30.4569 52.2944 30.4569 51.5356V50.1262C30.4569 49.3674 31.0716 48.7576 31.8214 48.7576H44.6891C44.7431 48.7576 44.7971 48.7643 44.8512 48.7711Z" fill="#2B2B2B"/>
<path id="Vector_7" d="M44.8444 40.7622C44.7971 40.769 44.7498 40.769 44.6958 40.769H31.8214C31.0648 40.769 30.4569 40.1592 30.4569 39.4003V37.991C30.4569 37.2321 31.0716 36.6223 31.8214 36.6223H43.3179C43.9933 37.9232 44.5067 39.3122 44.8444 40.7622Z" fill="#2B2B2B"/>
</g>
</g>
<path id="Vector_8" d="M83.7042 37.5303C81.7116 37.1441 80.0567 36.0735 79.0435 34.5219C78.064 33.0312 77.7533 31.1815 78.1586 29.3114C78.2262 28.9997 78.3342 28.6881 78.4626 28.3696C78.4828 28.4035 78.4964 28.4441 78.5099 28.478C78.9354 29.4944 79.3812 30.5378 79.8473 31.5677C80.1715 32.2791 80.7254 33.2548 81.8264 33.4717C82.4276 33.5868 83.1031 33.4649 83.9474 33.0854L84.454 32.8551C85.2916 32.4756 86.1629 32.0827 87.014 31.6693C88.5811 30.8969 89.0742 29.5486 88.365 27.9563C88.034 27.2245 87.6962 26.4995 87.345 25.761C87.5814 25.9236 87.8043 26.093 88.034 26.2624H88.0407C89.2566 27.5362 90.3441 28.9252 91.2965 30.4091C91.3911 31.5813 91.1547 32.7534 90.5805 33.8037C89.8037 35.2401 89.7632 36.3649 90.4454 37.6997C91.2492 39.2648 91.972 40.9181 92.6609 42.5239C92.9176 43.1202 93.1743 43.7096 93.4377 44.2991C94.147 45.8982 93.762 47.2398 92.3975 47.8699C91.9179 48.0935 91.4113 48.1612 90.9182 48.0732C90.0807 47.9105 89.3512 47.2669 88.9121 46.3183C88.4933 45.39 88.0745 44.4685 87.6557 43.5403C86.96 41.9954 86.244 40.3896 85.4942 38.8312C85.2105 38.2282 84.481 37.6726 83.8055 37.5438L83.7042 37.5303Z" fill="white"/>
<g id="Group_5">
<g id="Group_6">
<g id="Group_7">
<g id="Group_8">
<path id="Vector_9" d="M65.372 72.9128C65.372 73.1364 65.4328 73.3735 65.2774 73.57C55.5034 72.7163 47.1613 66.8215 42.8721 58.4875C44.3041 56.9223 45.4996 55.1267 46.3845 53.155C46.5669 52.8298 46.729 52.4842 46.8573 52.1251C47.5733 50.0857 48.1137 47.9649 48.1137 45.817C48.1137 45.7289 48.1137 45.6408 48.1137 45.5595C48.1205 45.3698 48.1272 45.1869 48.1272 44.9972C48.1272 40.0171 46.3035 35.4638 43.2909 31.9676C47.6611 24.0875 55.7128 18.5383 65.1153 17.6575C65.1693 17.8269 65.1828 18.0572 65.1828 18.3418C65.1558 24.3044 65.1693 30.2602 65.1693 36.2227C65.1693 36.6428 65.2234 37.0697 65.2436 37.4898C65.3179 37.5236 65.3382 37.5575 65.3112 37.5778C65.2909 37.5982 65.2571 37.6049 65.2301 37.6049C63.6293 37.9979 62.0081 37.7405 60.3938 37.7608C59.7791 37.7676 60.002 37.1849 59.9952 36.8461C59.9817 32.7671 59.9817 28.6882 59.9817 24.6093C59.9817 23.349 59.9817 23.349 58.7997 23.8301C54.8752 25.4359 51.5654 28.0377 49.1134 31.3104C49.0931 31.3307 49.0796 31.351 49.0594 31.3781C50.2482 32.9907 50.4914 33.709 50.4914 33.709C51.7275 36.4463 52.5583 39.4344 52.9028 42.5918C53.1662 44.9497 53.1054 47.267 52.7745 49.5233C52.2746 52.9518 50.7616 56.2854 48.5325 58.9346C48.5393 58.9414 48.546 58.955 48.5528 58.9617C51.079 62.5799 54.5982 65.5138 58.7321 67.2009C59.9682 67.7023 59.975 67.7023 59.975 66.4014C59.975 62.3563 59.9952 58.3113 59.9547 54.2662C59.9479 53.487 60.1236 53.1618 60.9409 53.2431C62.3661 53.399 63.8184 52.9721 65.2301 53.4735C65.4328 53.6768 65.3652 53.941 65.3652 54.1849C65.372 60.4321 65.372 66.6724 65.372 72.9128Z" fill="#2B2B2B"/>
</g>
</g>
<path id="Vector_10" d="M94.613 53.4802C91.4518 64.3686 81.8872 72.5197 70.2826 73.5632C70.2488 73.4209 70.2353 73.238 70.2353 73.0144C70.2421 70.5074 70.2488 68.0004 70.2488 65.4934C70.2556 58.8872 70.2488 52.2741 70.2488 45.6543C70.2488 37.8624 70.2623 30.0704 70.2353 22.2784C70.2353 21.0249 70.2286 19.7714 70.2218 18.5111C70.2218 18.1249 70.2488 17.8336 70.3501 17.6506C72.0388 17.8065 73.6802 18.1114 75.2676 18.5586C75.3756 18.7686 75.4229 19.0464 75.4229 19.4123C75.4162 20.2186 75.4094 21.0181 75.4094 21.8244C75.3824 28.4713 75.3959 35.1182 75.3959 41.7651C75.3959 49.8281 75.4094 57.8979 75.3756 65.9541C75.3756 66.1913 75.3689 66.4352 75.3689 66.6724C75.3689 67.6277 75.531 67.831 76.4564 67.4312C77.9762 66.7808 79.3812 66.0219 80.6848 65.1478H80.6916L80.6983 65.1411C84.5958 62.5257 87.4936 58.921 89.3714 54.3204C89.6618 53.6022 89.9928 53.3515 90.7426 53.3921C91.8368 53.4531 92.9379 53.4531 94.0321 53.3989C94.2888 53.3853 94.4779 53.4124 94.5995 53.4666C94.6063 53.4802 94.6063 53.4802 94.613 53.4802Z" fill="#2B2B2B"/>
</g>
</g>
<path id="Vector_11" d="M106.38 74.9928C106.427 74.9657 106.474 74.9318 106.522 74.8979C106.454 74.8979 106.407 74.9318 106.38 74.9928Z" fill="#E63846"/>
<g id="Group_9">
<path id="Vector_12" d="M2.74238 95.882V96.9729H2.4114V95.882L1.15503 93.8154H1.51303L2.59378 95.5839L3.67453 93.8154H4.00551L2.74238 95.882Z" fill="#3D3D3D"/>
<path id="Vector_13" d="M4.93091 95.7871C4.93091 95.0825 5.44427 94.5811 6.13324 94.5811C6.82222 94.5811 7.33558 95.0825 7.33558 95.7871C7.33558 96.4918 6.82898 96.9932 6.13324 96.9932C5.43751 96.9932 4.93091 96.485 4.93091 95.7871ZM7.01136 95.7871C7.01136 95.2315 6.63985 94.8656 6.13324 94.8656C5.62664 94.8656 5.25513 95.2383 5.25513 95.7871C5.25513 96.3359 5.6334 96.7086 6.13324 96.7086C6.63309 96.7086 7.01136 96.3359 7.01136 95.7871Z" fill="#3D3D3D"/>
<path id="Vector_14" d="M11.1047 94.6015V96.973H10.8007V96.5393C10.6319 96.8307 10.3279 96.9933 9.94965 96.9933C9.34848 96.9933 8.94995 96.6545 8.94995 95.977V94.6015H9.26742V95.9431C9.26742 96.4513 9.53086 96.7019 9.97667 96.7019C10.4698 96.7019 10.7805 96.3835 10.7805 95.8414V94.5947H11.1047V94.6015Z" fill="#3D3D3D"/>
<path id="Vector_15" d="M14.1781 94.5811V94.8927C14.1511 94.8927 14.124 94.886 14.1038 94.886C13.6107 94.886 13.3067 95.2044 13.3067 95.76V96.9661H12.9893V94.5946H13.2932V95.0621C13.4418 94.7505 13.739 94.5811 14.1781 94.5811Z" fill="#3D3D3D"/>
<path id="Vector_16" d="M17.7108 96.5867L17.8392 96.3292C18.0621 96.5528 18.4606 96.7154 18.8794 96.7154C19.467 96.7154 19.7237 96.4647 19.7237 96.153C19.7237 95.2857 17.7851 95.821 17.7851 94.6556C17.7851 94.1881 18.1431 93.7883 18.9469 93.7883C19.3049 93.7883 19.6697 93.89 19.9196 94.0661L19.8048 94.3304C19.5346 94.1542 19.2239 94.0661 18.9402 94.0661C18.366 94.0661 18.1093 94.3236 18.1093 94.6353C18.1093 95.5026 20.0479 94.9808 20.0479 96.1259C20.0479 96.5867 19.6764 96.9864 18.8726 96.9864C18.4066 97 17.9405 96.8306 17.7108 96.5867Z" fill="#3D3D3D"/>
<path id="Vector_17" d="M21.4529 95.7871C21.4529 95.0825 21.9662 94.5811 22.6552 94.5811C23.3442 94.5811 23.8576 95.0825 23.8576 95.7871C23.8576 96.4918 23.351 96.9932 22.6552 96.9932C21.9595 96.9932 21.4529 96.485 21.4529 95.7871ZM23.5333 95.7871C23.5333 95.2315 23.1618 94.8656 22.6552 94.8656C22.1486 94.8656 21.7771 95.2383 21.7771 95.7871C21.7771 96.3359 22.1554 96.7086 22.6552 96.7086C23.1551 96.7086 23.5333 96.3359 23.5333 95.7871Z" fill="#3D3D3D"/>
<path id="Vector_18" d="M25.8637 94.3168V94.5947H26.5932V94.8657H25.8705V96.9661H25.553V94.8657H25.1274V94.5947H25.553V94.3033C25.553 93.8764 25.8029 93.5986 26.269 93.5986C26.4446 93.5986 26.627 93.6461 26.7418 93.7477L26.6337 93.9848C26.5459 93.9103 26.4176 93.8697 26.2825 93.8697C26.0056 93.8764 25.8637 94.0255 25.8637 94.3168Z" fill="#3D3D3D"/>
<path id="Vector_19" d="M29.2546 96.8239C29.1263 96.9391 28.9372 96.9933 28.7548 96.9933C28.309 96.9933 28.0658 96.7426 28.0658 96.3022V94.8657H27.6403V94.5947H28.0658V94.073H28.3833V94.5947H29.0993V94.8657H28.3833V96.2819C28.3833 96.5597 28.5251 96.7155 28.7953 96.7155C28.9237 96.7155 29.0587 96.6748 29.1466 96.5935L29.2546 96.8239Z" fill="#3D3D3D"/>
<path id="Vector_20" d="M34.2463 94.6013L33.3547 96.9728H33.0508L32.3077 95.0282L31.5647 96.9728H31.2608L30.3691 94.6013H30.6731L31.4161 96.6137L32.1726 94.6013H32.4496L33.2061 96.6137L33.9559 94.6013H34.2463Z" fill="#3D3D3D"/>
<path id="Vector_21" d="M37.4277 95.5027V96.973H37.1238V96.6004C36.9819 96.8443 36.6982 96.9933 36.3132 96.9933C35.7796 96.9933 35.4486 96.7155 35.4486 96.3022C35.4486 95.9364 35.685 95.6314 36.3605 95.6314H37.1103V95.4892C37.1103 95.0826 36.8806 94.8658 36.4415 94.8658C36.1376 94.8658 35.8471 94.9742 35.658 95.1436L35.5162 94.9065C35.7526 94.7032 36.1038 94.588 36.4753 94.588C37.0832 94.5812 37.4277 94.8861 37.4277 95.5027ZM37.1103 96.2616V95.8754H36.3672C35.9079 95.8754 35.7593 96.0583 35.7593 96.3022C35.7593 96.58 35.9822 96.7494 36.3537 96.7494C36.7185 96.7426 36.9819 96.5665 37.1103 96.2616Z" fill="#3D3D3D"/>
<path id="Vector_22" d="M40.4741 94.5811V94.8927C40.4471 94.8927 40.4201 94.886 40.3998 94.886C39.9067 94.886 39.6027 95.2044 39.6027 95.76V96.9661H39.2853V94.5946H39.5892V95.0621C39.7378 94.7505 40.0418 94.5811 40.4741 94.5811Z" fill="#3D3D3D"/>
<path id="Vector_23" d="M44.0744 95.882H42.0953C42.1291 96.3766 42.5073 96.7086 43.0275 96.7086C43.3179 96.7086 43.5678 96.607 43.7502 96.3969L43.9326 96.607C43.7232 96.8577 43.3922 96.9932 43.0207 96.9932C42.2844 96.9932 41.7778 96.485 41.7778 95.7871C41.7778 95.0892 42.2709 94.5811 42.9329 94.5811C43.5948 94.5811 44.0812 95.0757 44.0812 95.7871C44.0812 95.8142 44.0744 95.8481 44.0744 95.882ZM42.0953 95.6448H43.7705C43.7299 95.1773 43.3922 94.8589 42.9329 94.8589C42.4736 94.8589 42.1358 95.1773 42.0953 95.6448Z" fill="#3D3D3D"/>
<path id="Vector_24" d="M47.6747 95.3942C47.6747 94.4727 48.3772 93.7883 49.3296 93.7883C50.2752 93.7883 50.9777 94.4659 50.9777 95.3942C50.9777 96.3156 50.2752 97 49.3296 97C48.3772 97 47.6747 96.3089 47.6747 95.3942ZM50.6468 95.3942C50.6468 94.6421 50.0861 94.0865 49.3296 94.0865C48.5731 94.0865 48.0057 94.6421 48.0057 95.3942C48.0057 96.1462 48.5731 96.7019 49.3296 96.7019C50.0861 96.7019 50.6468 96.1462 50.6468 95.3942Z" fill="#3D3D3D"/>
<path id="Vector_25" d="M54.7738 94.6015V96.973H54.4698V96.5393C54.3009 96.8307 53.997 96.9933 53.6187 96.9933C53.0175 96.9933 52.619 96.6545 52.619 95.977V94.6015H52.9365V95.9431C52.9365 96.4513 53.1999 96.7019 53.6457 96.7019C54.1388 96.7019 54.4495 96.3835 54.4495 95.8414V94.5947H54.7738V94.6015Z" fill="#3D3D3D"/>
<path id="Vector_26" d="M57.8472 94.5811V94.8927C57.8201 94.8927 57.7931 94.886 57.7729 94.886C57.2798 94.886 56.9758 95.2044 56.9758 95.76V96.9661H56.6583V94.5946H56.9623V95.0621C57.1109 94.7505 57.4149 94.5811 57.8472 94.5811Z" fill="#3D3D3D"/>
<path id="Vector_27" d="M64.1425 94.8995C64.1425 95.5703 63.6562 95.9768 62.8592 95.9768H62.0148V96.9729H61.6838V93.8154H62.8592C63.6562 93.8154 64.1425 94.222 64.1425 94.8995ZM63.8116 94.8995C63.8116 94.3914 63.4806 94.1068 62.8524 94.1068H62.0148V95.6855H62.8524C63.4806 95.6787 63.8116 95.3941 63.8116 94.8995Z" fill="#3D3D3D"/>
<path id="Vector_28" d="M67.547 95.5027V96.973H67.243V96.6004C67.1012 96.8443 66.8175 96.9933 66.4325 96.9933C65.8989 96.9933 65.5679 96.7155 65.5679 96.3022C65.5679 95.9364 65.8043 95.6314 66.4798 95.6314H67.2295V95.4892C67.2295 95.0826 66.9999 94.8658 66.5608 94.8658C66.2569 94.8658 65.9664 94.9742 65.7773 95.1436L65.6354 94.9065C65.8718 94.7032 66.2231 94.588 66.5946 94.588C67.1958 94.5812 67.547 94.8861 67.547 95.5027ZM67.2228 96.2616V95.8754H66.4798C66.0204 95.8754 65.8718 96.0583 65.8718 96.3022C65.8718 96.58 66.0947 96.7494 66.4662 96.7494C66.8378 96.7426 67.1012 96.5665 67.2228 96.2616Z" fill="#3D3D3D"/>
<path id="Vector_29" d="M69.0735 96.7018L69.2153 96.4511C69.4045 96.6002 69.7219 96.7154 70.0529 96.7154C70.4987 96.7154 70.6879 96.5595 70.6879 96.3292C70.6879 95.7126 69.1545 96.2004 69.1545 95.2586C69.1545 94.8724 69.4855 94.5811 70.0867 94.5811C70.3907 94.5811 70.7216 94.6691 70.9243 94.8047L70.7824 95.0621C70.573 94.9198 70.3299 94.8589 70.0867 94.8589C69.6611 94.8589 69.472 95.0283 69.472 95.2518C69.472 95.8888 71.0053 95.4077 71.0053 96.3224C71.0053 96.7357 70.6473 97 70.0327 97C69.6409 96.9932 69.2626 96.8644 69.0735 96.7018Z" fill="#3D3D3D"/>
<path id="Vector_30" d="M72.2617 96.7018L72.4036 96.4511C72.5927 96.6002 72.9102 96.7154 73.2411 96.7154C73.687 96.7154 73.8761 96.5595 73.8761 96.3292C73.8761 95.7126 72.3428 96.2004 72.3428 95.2586C72.3428 94.8724 72.6738 94.5811 73.2749 94.5811C73.5789 94.5811 73.9099 94.6691 74.1125 94.8047L73.9707 95.0621C73.7613 94.9198 73.5181 94.8589 73.2749 94.8589C72.8494 94.8589 72.6602 95.0283 72.6602 95.2518C72.6602 95.8888 74.1936 95.4077 74.1936 96.3224C74.1936 96.7357 73.8356 97 73.2209 97C72.8291 96.9932 72.4509 96.8644 72.2617 96.7018Z" fill="#3D3D3D"/>
<path id="Vector_31" d="M75.6998 93.8493C75.6998 93.7274 75.8011 93.6257 75.9362 93.6257C76.0646 93.6257 76.1727 93.7274 76.1727 93.8493C76.1727 93.9781 76.0713 94.0865 75.9362 94.0865C75.8011 94.0797 75.6998 93.9781 75.6998 93.8493ZM75.7741 94.6014H76.0916V96.9729H75.7741V94.6014Z" fill="#3D3D3D"/>
<path id="Vector_32" d="M77.733 95.7871C77.733 95.0825 78.2464 94.5811 78.9354 94.5811C79.6243 94.5811 80.1377 95.0825 80.1377 95.7871C80.1377 96.4918 79.6311 96.9932 78.9354 96.9932C78.2464 96.9932 77.733 96.485 77.733 95.7871ZM79.8135 95.7871C79.8135 95.2315 79.442 94.8656 78.9354 94.8656C78.4288 94.8656 78.0573 95.2383 78.0573 95.7871C78.0573 96.3359 78.4355 96.7086 78.9354 96.7086C79.442 96.7086 79.8135 96.3359 79.8135 95.7871Z" fill="#3D3D3D"/>
<path id="Vector_33" d="M83.9473 95.5976V96.973H83.6298V95.6314C83.6298 95.13 83.3664 94.8726 82.9206 94.8726C82.414 94.8726 82.0965 95.191 82.0965 95.7263V96.973H81.7791V94.6015H82.083V95.042C82.2519 94.7506 82.5694 94.588 82.9814 94.588C83.5555 94.5812 83.9473 94.9132 83.9473 95.5976Z" fill="#3D3D3D"/>
<path id="Vector_34" d="M88.3716 94.1068V95.3468H89.9995V95.6381H88.3716V96.9797H88.0406V93.8223H90.1954V94.1136H88.3716V94.1068Z" fill="#3D3D3D"/>
<path id="Vector_35" d="M91.4856 95.7871C91.4856 95.0825 91.999 94.5811 92.6879 94.5811C93.3769 94.5811 93.8903 95.0825 93.8903 95.7871C93.8903 96.4918 93.3837 96.9932 92.6879 96.9932C91.999 96.9932 91.4856 96.485 91.4856 95.7871ZM93.566 95.7871C93.566 95.2315 93.1945 94.8656 92.6879 94.8656C92.1813 94.8656 91.8098 95.2383 91.8098 95.7871C91.8098 96.3359 92.1881 96.7086 92.6879 96.7086C93.1945 96.7086 93.566 96.3359 93.566 95.7871Z" fill="#3D3D3D"/>
<path id="Vector_36" d="M96.7204 94.5811V94.8927C96.6934 94.8927 96.6664 94.886 96.6461 94.886C96.1531 94.886 95.8491 95.2044 95.8491 95.76V96.9661H95.5316V94.5946H95.8356V95.0621C95.9842 94.7505 96.2881 94.5811 96.7204 94.5811Z" fill="#3D3D3D"/>
<path id="Vector_37" d="M103.016 94.8995C103.016 95.5703 102.53 95.9768 101.732 95.9768H100.888V96.9729H100.557V93.8154H101.732C102.53 93.8154 103.016 94.222 103.016 94.8995ZM102.685 94.8995C102.685 94.3914 102.354 94.1068 101.726 94.1068H100.888V95.6855H101.726C102.354 95.6787 102.685 95.3941 102.685 94.8995Z" fill="#3D3D3D"/>
<path id="Vector_38" d="M106.704 95.882H104.725C104.759 96.3766 105.137 96.7086 105.657 96.7086C105.947 96.7086 106.197 96.607 106.38 96.3969L106.562 96.607C106.353 96.8577 106.022 96.9932 105.65 96.9932C104.914 96.9932 104.407 96.485 104.407 95.7871C104.407 95.0892 104.894 94.5811 105.562 94.5811C106.224 94.5811 106.711 95.0757 106.711 95.7871C106.704 95.8142 106.704 95.8481 106.704 95.882ZM104.725 95.6448H106.4C106.359 95.1773 106.022 94.8589 105.562 94.8589C105.103 94.8589 104.765 95.1773 104.725 95.6448Z" fill="#3D3D3D"/>
<path id="Vector_39" d="M109.534 94.5811V94.8927C109.507 94.8927 109.48 94.886 109.46 94.886C108.967 94.886 108.663 95.2044 108.663 95.76V96.9661H108.345V94.5946H108.649V95.0621C108.798 94.7505 109.102 94.5811 109.534 94.5811Z" fill="#3D3D3D"/>
<path id="Vector_40" d="M111.5 94.3168V94.5947H112.229V94.8657H111.513V96.9661H111.196V94.8657H110.77V94.5947H111.196V94.3033C111.196 93.8764 111.446 93.5986 111.912 93.5986C112.087 93.5986 112.27 93.6461 112.385 93.7477L112.277 93.9848C112.189 93.9103 112.06 93.8697 111.925 93.8697C111.642 93.8764 111.5 94.0255 111.5 94.3168Z" fill="#3D3D3D"/>
<path id="Vector_41" d="M115.667 95.882H113.688C113.722 96.3766 114.1 96.7086 114.62 96.7086C114.911 96.7086 115.161 96.607 115.343 96.3969L115.526 96.607C115.316 96.8577 114.985 96.9932 114.614 96.9932C113.877 96.9932 113.371 96.485 113.371 95.7871C113.371 95.0892 113.857 94.5811 114.526 94.5811C115.188 94.5811 115.674 95.0757 115.674 95.7871C115.667 95.8142 115.667 95.8481 115.667 95.882ZM113.688 95.6448H115.363C115.323 95.1773 114.985 94.8589 114.526 94.8589C114.067 94.8589 113.729 95.1773 113.688 95.6448Z" fill="#3D3D3D"/>
<path id="Vector_42" d="M117.072 95.7871C117.072 95.0825 117.586 94.5811 118.288 94.5811C118.687 94.5811 119.024 94.7369 119.214 95.0486L118.977 95.2112C118.815 94.974 118.565 94.8589 118.288 94.8589C117.768 94.8589 117.397 95.2315 117.397 95.7803C117.397 96.3359 117.775 96.7018 118.288 96.7018C118.565 96.7018 118.815 96.5934 118.977 96.3563L119.214 96.5189C119.024 96.8238 118.687 96.9864 118.288 96.9864C117.586 96.9932 117.072 96.4918 117.072 95.7871Z" fill="#3D3D3D"/>
<path id="Vector_43" d="M122.098 96.8239C121.97 96.9391 121.78 96.9933 121.598 96.9933C121.152 96.9933 120.909 96.7426 120.909 96.3022V94.8657H120.484V94.5947H120.909V94.073H121.227V94.5947H121.943V94.8657H121.227V96.2819C121.227 96.5597 121.368 96.7155 121.639 96.7155C121.767 96.7155 121.902 96.6748 121.99 96.5935L122.098 96.8239Z" fill="#3D3D3D"/>
<path id="Vector_44" d="M123.597 93.8493C123.597 93.7274 123.699 93.6257 123.834 93.6257C123.962 93.6257 124.07 93.7274 124.07 93.8493C124.07 93.9781 123.969 94.0865 123.834 94.0865C123.699 94.0797 123.597 93.9781 123.597 93.8493ZM123.672 94.6014H123.989V96.9729H123.672V94.6014Z" fill="#3D3D3D"/>
<path id="Vector_45" d="M125.631 95.7871C125.631 95.0825 126.144 94.5811 126.833 94.5811C127.522 94.5811 128.035 95.0825 128.035 95.7871C128.035 96.4918 127.529 96.9932 126.833 96.9932C126.137 96.9932 125.631 96.485 125.631 95.7871ZM127.711 95.7871C127.711 95.2315 127.34 94.8656 126.833 94.8656C126.326 94.8656 125.955 95.2383 125.955 95.7871C125.955 96.3359 126.333 96.7086 126.833 96.7086C127.333 96.7086 127.711 96.3359 127.711 95.7871Z" fill="#3D3D3D"/>
<path id="Vector_46" d="M131.845 95.5976V96.973H131.527V95.6314C131.527 95.13 131.264 94.8726 130.818 94.8726C130.312 94.8726 129.994 95.191 129.994 95.7263V96.973H129.677V94.6015H129.981V95.042C130.149 94.7506 130.467 94.588 130.879 94.588C131.453 94.5812 131.845 94.9132 131.845 95.5976Z" fill="#3D3D3D"/>
</g>
<path id="Vector_47" d="M10.051 87.1754C9.20671 88.0224 7.93683 88.4831 6.81555 88.4831C3.63409 88.4831 2.40473 86.254 2.39122 84.1129C2.37096 81.9582 3.71514 79.6342 6.81555 79.6342C7.93683 79.6342 9.07837 80.0204 9.91596 80.8538L11.5303 79.2886C10.2064 77.9809 8.55151 77.3169 6.80879 77.3169C2.16156 77.3169 -0.0269606 80.7454 -0.00669653 84.1196C0.0135676 87.4736 2.03322 90.7733 6.80879 90.7733C8.66634 90.7733 10.3685 90.1635 11.6992 88.8558L10.051 87.1754Z" fill="#2B2B2B"/>
<path id="Vector_48" d="M17.1231 81.1519C16.2045 81.1519 15.2656 81.3212 14.5698 82.446L14.4077 81.3958H12.3273V90.4819H14.5698V85.6915C14.5698 84.0112 15.6506 83.3878 16.8327 83.3878C17.5689 83.3878 17.9877 83.5911 18.447 83.9773L19.4535 82.0259C18.9604 81.5177 18.062 81.1519 17.1231 81.1519Z" fill="#2B2B2B"/>
<path id="Vector_49" d="M27.2822 81.3889V86.0369C27.2822 87.4192 26.3433 88.5778 24.9654 88.5778C23.5334 88.5778 22.7769 87.5276 22.7769 86.1454V81.3889H20.5343V86.1657C20.5343 88.9843 22.1149 90.624 24.2832 90.624C25.553 90.624 26.4109 90.1836 27.3498 89.2554L27.4984 90.4885H29.5045V81.3821H27.2822V81.3889Z" fill="#2B2B2B"/>
<path id="Vector_50" d="M35.2055 84.8918C34.0504 84.8173 33.5168 84.4853 33.5168 83.8958C33.5168 83.3199 34.1045 82.9946 35.1717 82.9946C36.0363 82.9946 36.7726 83.1979 37.4143 83.8077L38.6639 82.3306C37.6169 81.4092 36.5497 81.1313 35.1379 81.1313C33.483 81.1313 31.3148 81.8699 31.3148 83.9703C31.3148 86.0369 33.3547 86.6603 35.0636 86.789C36.3538 86.8635 36.8604 87.121 36.8604 87.7444C36.8604 88.4084 36.0701 88.8488 35.2258 88.8285C34.2193 88.8081 32.7468 88.2796 32.0983 87.5614L30.9973 89.1673C32.3212 90.5495 33.7532 90.7866 35.1852 90.7866C37.7723 90.7866 39.0759 89.4044 39.0759 87.7986C39.0759 85.3932 36.9077 85.007 35.2055 84.8918Z" fill="#2B2B2B"/>
<path id="Vector_51" d="M45.5807 81.2602C44.554 81.2602 43.5611 81.5718 42.7505 82.6221V77.5742H40.5079V90.475H42.7505V85.8269C42.7505 84.465 43.6691 83.3403 44.9931 83.3403C46.1819 83.3403 47.0465 84.0382 47.0465 85.6982V90.4683H49.289V85.6779C49.2958 83.0151 48.1543 81.2602 45.5807 81.2602Z" fill="#2B2B2B"/>
<path id="Vector_52" d="M55.598 81.1179C52.6597 81.1179 50.7819 83.11 50.7819 85.8744C50.7819 88.7879 52.6394 90.719 55.7601 90.719C57.138 90.719 58.6984 90.2447 59.6508 89.2419L58.2188 87.8258C57.7054 88.3611 56.6179 88.6727 55.7938 88.6727C54.2132 88.6727 53.2406 87.8597 53.092 86.7349H60.1641C60.5221 82.9948 58.6241 81.1179 55.598 81.1179ZM53.1325 84.8716C53.4635 83.6927 54.4564 83.1032 55.6655 83.1032C56.9557 83.1032 57.8675 83.6927 58.0161 84.8716H53.1325Z" fill="#2B2B2B"/>
<path id="Vector_53" d="M66.6892 81.1519C65.7705 81.1519 64.8384 81.3212 64.1359 82.446L63.9738 81.3958H61.8933V90.4819H64.1359V85.6915C64.1359 84.0112 65.2166 83.3878 66.3987 83.3878C67.135 83.3878 67.5538 83.5911 68.0131 83.9773L69.0195 82.0259C68.5332 81.5177 67.6281 81.1519 66.6892 81.1519Z" fill="#2B2B2B"/>
<path id="Vector_54" d="M73.5857 84.8918C72.4306 84.8173 71.897 84.4853 71.897 83.8958C71.897 83.3199 72.4847 82.9946 73.5519 82.9946C74.4165 82.9946 75.1528 83.1979 75.7945 83.8077L77.0441 82.3306C75.9971 81.4092 74.9299 81.1313 73.5181 81.1313C71.8632 81.1313 69.7017 81.8699 69.7017 83.9703C69.7017 86.0369 71.7417 86.6603 73.4439 86.789C74.734 86.8635 75.2474 87.121 75.2474 87.7444C75.2474 88.4084 74.4571 88.8488 73.6127 88.8285C72.6063 88.8081 71.1337 88.2796 70.4853 87.5614L69.3843 89.1673C70.7082 90.5495 72.1402 90.7866 73.5722 90.7866C76.1592 90.7866 77.4697 89.4044 77.4697 87.7986C77.4629 85.3932 75.2879 85.007 73.5857 84.8918Z" fill="#2B2B2B"/>
<path id="Vector_55" d="M78.8949 77.5945V90.475H81.1172V77.5945H78.8949Z" fill="#2B2B2B"/>
<path id="Vector_56" d="M90.263 81.3888L90.1887 82.6423C89.6753 81.7412 88.5203 81.1652 87.3044 81.1652C84.6566 81.1449 82.5829 82.7846 82.5829 85.9217C82.5829 89.113 84.5688 90.7663 87.2504 90.7528C88.2636 90.7324 89.6753 90.2175 90.1887 89.1537L90.2967 90.4817H92.411V81.3956H90.263V81.3888ZM87.5071 88.693C86.021 88.693 84.8254 87.6631 84.8254 85.9285C84.8254 84.1939 86.021 83.1844 87.5071 83.1844C91.033 83.1776 91.033 88.693 87.5071 88.693Z" fill="#2B2B2B"/>
<path id="Vector_57" d="M99.3414 81.1721C98.389 81.1721 96.8962 81.687 96.3626 82.6288V77.6013H94.12V90.4818H96.214L96.3626 89.2283C97.0583 90.3124 98.1796 90.6851 99.2806 90.6851C101.942 90.6851 103.948 88.9166 103.948 85.9286C103.955 82.7915 101.989 81.1721 99.3414 81.1721ZM99.1387 88.5982C97.7203 88.5982 96.5112 87.5683 96.5112 85.9286C96.5112 84.3431 97.7203 83.2725 99.1387 83.2725C100.571 83.2725 101.712 84.2889 101.712 85.9286C101.712 87.5073 100.571 88.5982 99.1387 88.5982Z" fill="#2B2B2B"/>
<path id="Vector_58" d="M112.033 77.2693L111.601 79.4646C111.662 79.4578 111.716 79.4578 111.777 79.4578C114.81 79.4578 115.89 81.7073 115.985 83.7875C116.019 84.6344 115.836 85.522 115.438 86.2877C115.451 86.3012 115.465 86.3148 115.472 86.3215C116.066 86.8704 116.627 87.4666 117.187 88.0493C118.011 86.8568 118.39 85.3323 118.376 83.862C118.322 80.6097 116.377 77.3912 112.033 77.2693ZM113.715 88.0087C113.168 88.2865 112.526 88.4491 111.777 88.4491C108.98 88.4491 107.589 86.186 107.548 84.0652C107.535 83.2318 107.704 82.3646 108.095 81.6057H105.529C105.279 82.3713 105.157 83.1912 105.164 84.011C105.184 87.365 107.204 90.6986 111.777 90.6986C113.229 90.6986 114.458 90.3666 115.431 89.7432L115.64 89.9465C114.999 89.3028 114.37 88.6456 113.715 88.0087Z" fill="white"/>
<path id="Vector_59" d="M127.231 77.5811H124.59L118.822 90.4819H121.449L122.55 88.0494H129.278L130.359 90.4819H133.007L127.231 77.5811ZM123.516 85.7796L125.908 80.2845L128.299 85.7796H123.516Z" fill="white"/>
<path id="Vector_60" d="M118.227 90.0549L117.478 90.8137C117.214 91.078 116.789 91.078 116.525 90.8137L115.647 89.9464C115.005 89.3028 114.37 88.6455 113.722 88.0086C114.485 87.6224 115.059 87.0058 115.438 86.2876C115.451 86.3011 115.465 86.3147 115.472 86.3215C116.066 86.8703 116.627 87.4666 117.187 88.0493C117.187 88.056 117.18 88.056 117.18 88.0628L117.478 88.3542C117.478 88.3542 117.478 88.3542 117.484 88.3609L118.221 89.0927C118.491 89.357 118.491 89.7906 118.227 90.0549Z" fill="white"/>
<path id="Vector_61" d="M115.438 86.2876C115.06 87.0058 114.485 87.6224 113.722 88.0086C113.648 87.9341 113.574 87.8596 113.492 87.785C113.378 87.6766 113.148 87.6089 112.993 87.636C111.317 87.9273 109.865 86.9177 109.636 85.2509C109.595 84.946 109.629 84.6411 109.629 84.3362C109.676 84.3159 109.73 84.2956 109.777 84.2753C110.189 84.7089 110.595 85.1425 111.014 85.5694C111.453 86.0098 111.77 86.003 112.216 85.5626C112.506 85.2713 112.81 84.9799 113.094 84.6818C113.432 84.3295 113.432 83.9771 113.087 83.6316C112.648 83.1844 112.189 82.7507 111.689 82.2629C113.601 81.7886 115.377 83.3673 115.107 85.2171C115.046 85.6575 115.107 85.9692 115.438 86.2876Z" fill="white"/>
<path id="Vector_62" d="M117.478 88.3542L117.181 88.0629C117.181 88.0561 117.187 88.0561 117.187 88.0493C117.248 88.1103 117.309 88.1781 117.37 88.239C117.41 88.2797 117.444 88.3136 117.478 88.3542Z" fill="#E63846"/>
<path id="Vector_63" d="M113.195 79.2072C113.101 79.3156 112.999 79.2004 112.918 79.1326C112.425 78.7329 111.932 78.3331 111.432 77.9401C111.331 77.8656 111.25 77.7436 111.081 77.7843C110.75 77.8656 110.419 77.9401 110.088 78.0146C110.777 79.4104 110.689 80.2642 109.811 80.9078L109.784 80.9282C108.899 81.5583 108.062 81.3754 106.954 80.2845C106.778 80.5826 106.603 80.874 106.427 81.1585C106.339 81.3008 106.427 81.4228 106.468 81.538C106.684 82.1342 106.907 82.7305 107.129 83.3267C107.163 83.4284 107.244 83.5571 107.116 83.6181C106.954 83.6926 106.927 83.5436 106.88 83.4216C106.636 82.7711 106.393 82.1139 106.143 81.4702C106.076 81.2873 106.116 81.1518 106.211 80.9959C106.407 80.6571 106.785 80.3387 106.738 79.9863C106.697 79.6543 106.312 79.3765 106.13 79.0445C105.941 78.7058 105.704 78.6177 105.36 78.76C104.698 79.0378 104.151 78.8955 103.691 78.3399C103.57 78.1908 103.401 78.0756 103.252 77.9537C103.171 77.8859 103.097 77.8114 103.178 77.7097C103.259 77.6013 103.354 77.6691 103.428 77.7368C103.685 77.9604 103.948 78.1773 104.191 78.4144C104.394 78.6109 104.596 78.6787 104.873 78.5838C105.096 78.5025 105.346 78.4754 105.65 78.4144C105.556 78.2857 105.508 78.2044 105.441 78.1298C105.333 78.0079 105.373 77.9266 105.495 77.8385C105.947 77.5132 106.4 77.1812 106.853 76.856C107.305 76.5308 107.758 76.1988 108.21 75.8668C108.332 75.7787 108.42 75.7651 108.507 75.9074C108.555 75.9955 108.616 76.0633 108.71 76.1988C108.865 75.9277 108.967 75.6974 109.115 75.5077C109.298 75.2705 109.291 75.0605 109.169 74.803C109.021 74.4981 108.899 74.1729 108.764 73.8612C108.724 73.7663 108.697 73.6579 108.818 73.6105C108.94 73.563 108.987 73.6579 109.028 73.7595C109.095 73.9425 109.156 74.139 109.257 74.2948C109.642 74.9046 109.608 75.4738 109.136 76.0158C108.892 76.2936 108.899 76.5511 109.163 76.8357C109.419 77.1135 109.561 77.5674 109.865 77.7097C110.189 77.8656 110.608 77.6013 110.986 77.5268C111.162 77.4929 111.311 77.4929 111.459 77.6149C111.993 78.0621 112.533 78.4957 113.08 78.9293C113.182 79.0039 113.31 79.0784 113.195 79.2072Z" fill="white"/>
<g id="Group_10">
<path id="Vector_64" d="M106.832 72.9667C106.231 73.5291 106.285 74.1999 106.522 74.8978C106.474 74.9317 106.427 74.9588 106.38 74.9927C106.258 74.6945 106.184 74.3896 106.177 74.0712C106.17 73.5901 106.332 73.1836 106.697 72.8651C106.744 72.8312 106.792 72.7703 106.853 72.8177C106.92 72.8719 106.886 72.9193 106.832 72.9667Z" fill="white"/>
<g id="Group_11">
<path id="Vector_65" d="M105.123 75.9209C105.171 75.887 105.211 75.8532 105.258 75.8125C105.184 75.8125 105.144 75.8464 105.123 75.9209Z" fill="white"/>
<path id="Vector_66" d="M106.69 75.0264C106.609 75.0129 106.569 74.9519 106.522 74.8977C106.474 74.9316 106.427 74.9587 106.38 74.9926C106.109 75.0129 105.887 75.0874 105.697 75.2297C105.508 75.3652 105.36 75.5617 105.258 75.8056C105.218 75.8463 105.171 75.8802 105.123 75.9141C105.164 75.975 105.198 76.036 105.191 76.1173C105.137 76.5713 105.36 76.9168 105.616 77.2489C105.711 77.364 105.772 77.4115 105.914 77.3098C106.191 77.0998 106.474 76.8965 106.758 76.6932C107.042 76.49 107.325 76.2867 107.609 76.0834C107.751 75.9818 107.724 75.9073 107.643 75.7853C107.393 75.4398 107.143 75.1145 106.69 75.0264ZM105.941 76.5035C105.839 76.551 105.772 76.5374 105.724 76.4697C105.691 76.4019 105.691 76.3274 105.765 76.2799C105.839 76.2325 105.907 76.2596 105.954 76.3274C106.008 76.3951 105.981 76.4561 105.941 76.5035ZM106.819 75.8666C106.765 75.8937 106.697 75.8937 106.643 75.826C106.596 75.7582 106.589 75.6905 106.657 75.6295C106.724 75.5753 106.798 75.5956 106.852 75.6498C106.907 75.7108 106.893 75.7853 106.819 75.8666Z" fill="white"/>
<path id="Vector_67" d="M105.258 75.8055C105.218 75.8462 105.171 75.8801 105.123 75.914C104.536 75.4735 103.914 75.2093 103.191 75.6023C103.131 75.6361 103.07 75.6497 103.043 75.5752C103.016 75.5006 103.09 75.4735 103.137 75.4397C103.556 75.189 103.989 75.1686 104.441 75.3245C104.745 75.4329 105.015 75.6023 105.258 75.8055Z" fill="white"/>
</g>
</g>
</g>
<defs>
<clipPath id="clip0_1305_5154">
<rect width="133" height="97" fill="white"/>
</clipPath>
</defs>
</svg>
