<svg width="196" height="47" viewBox="0 0 196 47" fill="none" xmlns="http://www.w3.org/2000/svg">
<g id="Frame" clip-path="url(#clip0_1305_5233)">
<g id="Group">
<g id="Group_2">
<path id="Vector" d="M19.2 46.2501H44.82C55.74 46.2501 64.73 37.9601 65.85 27.3301H38.27C36.97 27.3301 35.73 27.8801 34.85 28.8501L19.2 46.2501Z" fill="white"/>
<path id="Vector_2" d="M65.86 19.23C64.9 8.47004 55.83 0.0400391 44.82 0.0400391H19.2L34.85 17.69C35.72 18.67 36.97 19.24 38.29 19.24H65.86V19.23Z" fill="white"/>
</g>
</g>
<path id="Vector_3" d="M25.73 19.89C23.52 17.47 21.27 15.08 19.02 12.7C16.38 9.89 13.7 7.1 11.05 4.29C10.23 3.42 9.35999 2.58 8.55999 1.69C7.72999 0.75 6.49999 0 5.16999 0C4.87999 0 4.57999 0.03 4.28999 0.09C3.07999 0.33 2.01999 1.06 1.36999 2.11C0.879987 2.88 0.649987 3.8 0.699987 4.7C0.749987 5.65 1.19999 6.24 1.90999 6.88C3.52999 8.34 5.05999 9.87 6.63999 11.36C8.34999 13.06 10.02 14.79 11.68 16.54C13.37 18.32 15.03 20.13 16.69 21.94C16.91 22.18 16.91 22.57 16.68 22.8L1.32999 38.57C-0.180013 40.12 -0.440013 42.58 0.729987 44.28C1.57999 45.51 2.95999 46.25 4.43999 46.25C5.65999 46.25 6.79999 45.77 7.64999 44.9L26.38 25.33C27.99 23.67 27.3 21.6 25.73 19.89Z" fill="white"/>
<g id="Group_3">
<path id="Vector_4" d="M83.7 1.34009H91.98C98.15 1.34009 101.53 5.35009 101.53 10.1801C101.53 16.0501 97.22 19.6601 91.88 19.6601H83.7V1.34009ZM88.15 16.2201H91.31C94.89 16.2201 96.83 14.2001 96.83 10.3001C96.83 6.91009 95.06 4.81009 91.37 4.76009H88.16V16.2201H88.15Z" fill="#2B2B2B"/>
<path id="Vector_5" d="M108.25 13.9801C108.36 15.6001 109.54 16.8701 111.55 16.8701C113.16 16.8701 113.91 16.3801 114.4 15.5501H118.65C117.84 17.9301 115.82 20.0301 111.5 20.0301C106 20.0301 104.01 16.3801 104.01 12.9601C104.01 9.17011 106.56 5.86011 111.47 5.86011C116.7 5.86011 118.81 9.46011 118.81 12.9601C118.81 13.3001 118.81 13.5401 118.79 13.9701H108.25V13.9801ZM114.5 11.3701C114.42 10.3401 113.86 8.83011 111.47 8.83011C109.24 8.83011 108.43 10.0501 108.3 11.3701H114.5Z" fill="#2B2B2B"/>
<path id="Vector_6" d="M124.19 6.21997C126.03 11.4 127.18 14.32 127.65 15.98H127.7C128.19 14.3 129.12 11.7 131.12 6.21997H135.45L129.89 19.66H125.15L119.62 6.21997H124.19Z" fill="#2B2B2B"/>
<path id="Vector_7" d="M137.33 19.66V0.290039H141.58V19.66H137.33Z" fill="#2B2B2B"/>
<path id="Vector_8" d="M158.57 15.9001C158.57 17.6501 158.65 19.3801 158.68 19.6701H154.66C154.56 19.3501 154.53 18.5301 154.5 18.1501C153.78 19.3101 152.23 20.0301 149.7 20.0301C146.02 20.0301 144.54 17.7901 144.54 15.6401C144.54 12.1101 147.63 11.1301 151.59 11.1301C152.64 11.1301 153.94 11.1301 154.41 11.1301V10.7101C154.41 9.62011 153.94 8.74011 151.96 8.74011C150.12 8.74011 149.72 9.43011 149.54 10.2001H145.29C145.4 8.54011 146.57 5.86011 151.89 5.86011C157.73 5.86011 158.56 8.61011 158.56 10.8601V15.9001H158.57ZM154.41 13.8201C154.1 13.8001 153.18 13.8001 151.67 13.8001C149.51 13.8001 148.66 14.3701 148.66 15.4301C148.66 16.3001 149.37 17.0101 150.91 17.0101C153.24 17.0101 154.41 15.9401 154.41 14.0301V13.8201Z" fill="#2B2B2B"/>
<path id="Vector_9" d="M162.19 0.290039H166.44V7.67004C167.11 6.87004 168.35 5.85004 170.9 5.85004C174.55 5.85004 177.44 8.67004 177.44 12.67C177.44 17.28 174.41 20.02 170.62 20.02C168.04 20.02 166.92 19.08 166.28 18.14C166.28 18.49 166.25 19.34 166.22 19.66H162.16C162.19 17.72 162.19 16.66 162.19 15.18V0.290039ZM173.07 12.86C173.07 10.96 172.07 9.16004 169.74 9.16004C167.39 9.16004 166.34 10.67 166.34 12.93C166.34 15.06 167.48 16.68 169.7 16.68C171.97 16.68 173.07 14.99 173.07 12.86Z" fill="#2B2B2B"/>
<path id="Vector_10" d="M86.35 40.3899C86.88 41.9699 88.14 43.0099 91.18 43.0099C94.03 43.0099 94.85 42.1399 94.85 40.9599C94.85 39.6999 94.01 38.9899 90.14 38.3299C83.78 37.2399 82.62 35.1799 82.62 32.7199C82.62 29.0599 86.14 27.1899 90.47 27.1899C96.76 27.1899 98.47 30.4199 98.67 32.5499H94.22C93.96 31.6399 93.35 30.4299 90.33 30.4299C88.21 30.4299 87.14 31.0999 87.14 32.2899C87.14 33.3499 87.89 33.8799 91.33 34.4999C98.29 35.7499 99.38 37.8499 99.38 40.5099C99.38 43.6899 96.89 46.2499 90.74 46.2499C85.01 46.2499 82.43 43.6899 81.87 40.3899H86.35Z" fill="#2B2B2B"/>
<path id="Vector_11" d="M117.28 39.1501C117.28 43.2901 114.42 46.2501 109.43 46.2501C104.42 46.2501 101.86 42.8801 101.86 39.1601C101.86 35.4701 104.51 32.0801 109.6 32.0801C114.84 32.0801 117.28 35.8201 117.28 39.1501ZM106.18 39.1501C106.18 41.2401 107.34 43.0401 109.56 43.0401C111.85 43.0401 112.9 41.2701 112.9 39.2201C112.9 37.1901 111.89 35.2801 109.53 35.2801C107.23 35.2801 106.18 37.0801 106.18 39.1501Z" fill="#2B2B2B"/>
<path id="Vector_12" d="M120.08 45.88V26.51H124.33V45.88H120.08Z" fill="#2B2B2B"/>
<path id="Vector_13" d="M141.46 41.9699C141.46 43.2699 141.44 44.5899 141.46 45.8799H137.31C137.26 45.5199 137.25 44.8999 137.23 44.3099C136.56 45.3699 135.53 46.2499 132.71 46.2499C129.9 46.2499 127.7 44.6099 127.7 40.6499V32.4399H131.95V39.9499C131.95 41.7399 132.6 42.9399 134.37 42.9399C136.43 42.9399 137.2 41.7299 137.2 38.6499V32.4399H141.45V41.9699H141.46Z" fill="#2B2B2B"/>
<path id="Vector_14" d="M144.05 32.44H146.46V28.48H150.73V32.44H153.84V35.53H150.73V41.19C150.73 42.33 150.97 42.86 152.27 42.86C152.64 42.86 153.05 42.86 153.42 42.78V45.69C152.69 45.9 151.71 45.99 150.72 45.99C147.41 45.99 146.45 44.55 146.45 41.93V35.52H144.04V32.44H144.05Z" fill="#2B2B2B"/>
<path id="Vector_15" d="M156.39 26.51H160.64V29.91H156.39V26.51ZM156.39 32.44H160.64V45.88H156.39V32.44Z" fill="#2B2B2B"/>
<path id="Vector_16" d="M178.87 39.1501C178.87 43.2901 176.01 46.2501 171.02 46.2501C166.01 46.2501 163.45 42.8801 163.45 39.1601C163.45 35.4701 166.1 32.0801 171.19 32.0801C176.43 32.0801 178.87 35.8201 178.87 39.1501ZM167.78 39.1501C167.78 41.2401 168.94 43.0401 171.16 43.0401C173.45 43.0401 174.5 41.2701 174.5 39.2201C174.5 37.1901 173.49 35.2801 171.13 35.2801C168.82 35.2801 167.78 37.0801 167.78 39.1501Z" fill="#2B2B2B"/>
<path id="Vector_17" d="M181.67 35.8301C181.67 34.6901 181.67 33.4001 181.64 32.4401H185.79C185.84 32.8201 185.89 33.6301 185.91 34.1801C186.52 33.2501 187.75 32.0801 190.37 32.0801C193.68 32.0801 195.64 34.1301 195.64 37.5901V45.8801H191.34V38.2701C191.34 36.7301 190.74 35.3801 188.83 35.3801C186.85 35.3801 185.92 36.7501 185.92 39.1801V45.8901H181.65V35.8301H181.67Z" fill="#2B2B2B"/>
</g>
</g>
<defs>
<clipPath id="clip0_1305_5233">
<rect width="195.66" height="46.25" fill="white"/>
</clipPath>
</defs>
</svg>
