<svg width="199" height="39" viewBox="0 0 199 39" fill="none" xmlns="http://www.w3.org/2000/svg">
<g id="Group 1000003280">
<g id="Group 1000003227">
<path id="Vector 344" d="M33.156 0H0V32.9398L5.23516 38.3912L38.3912 38.3912V4.26202L33.156 0Z" fill="white"/>
<path id="Vector" d="M24.758 9.59814H21.8132C20.5115 9.59814 19.2632 10.1152 18.3427 11.0357C17.4223 11.9561 16.9052 13.2044 16.9052 14.5061V17.4509H13.9604V21.3773H16.9052V29.23H20.8316V21.3773H23.7764L24.758 17.4509H20.8316V14.5061C20.8316 14.2458 20.935 13.9961 21.1191 13.812C21.3032 13.6279 21.5529 13.5245 21.8132 13.5245H24.758V9.59814Z" fill="#E63846"/>
</g>
<g id="Group 1000003228">
<path id="Vector 345" d="M86.3802 0H53.2242V32.9398L58.4593 38.3912L91.6154 38.3912V4.26202L86.3802 0Z" fill="white"/>
<g id="Group">
<path id="Vector_2" d="M62.822 18.3235C62.822 14.6219 62.822 12.7706 64.015 11.6211C65.207 10.4707 67.1269 10.4707 70.9656 10.4707H73.0015C76.8402 10.4707 78.76 10.4707 79.952 11.6211C81.1451 12.7706 81.1451 14.6219 81.1451 18.3235V20.2866C81.1451 23.9882 81.1451 25.8395 79.952 26.989C78.76 28.1394 76.8402 28.1394 73.0015 28.1394H70.9656C67.1269 28.1394 65.207 28.1394 64.015 26.989C62.822 25.8395 62.822 23.9882 62.822 20.2866V18.3235Z" fill="#E63846"/>
<path id="Vector_3" d="M76.5643 16.3603C77.4076 16.3603 78.0912 15.7011 78.0912 14.8879C78.0912 14.0747 77.4076 13.4155 76.5643 13.4155C75.721 13.4155 75.0374 14.0747 75.0374 14.8879C75.0374 15.7011 75.721 16.3603 76.5643 16.3603Z" fill="white"/>
<path id="Vector_4" d="M71.9835 22.2494C73.6701 22.2494 75.0374 20.931 75.0374 19.3046C75.0374 17.6783 73.6701 16.3599 71.9835 16.3599C70.2969 16.3599 68.9297 17.6783 68.9297 19.3046C68.9297 20.931 70.2969 22.2494 71.9835 22.2494Z" stroke="white" stroke-width="2"/>
</g>
</g>
<g id="Group 1000003229">
<path id="Vector 346" d="M140.041 0H106.885V32.9398L112.12 38.3912L145.276 38.3912V4.26202L140.041 0Z" fill="white"/>
<path id="Vector_5" d="M119.958 9.98505C119.963 10.5669 119.738 11.1272 119.333 11.5447C118.927 11.9623 118.374 12.2035 117.792 12.2164C117.212 12.1953 116.662 11.9519 116.255 11.5366C115.849 11.1214 115.618 10.5659 115.61 9.98505C115.635 9.41898 115.874 8.88367 116.28 8.48772C116.685 8.09178 117.226 7.86486 117.792 7.85303C118.357 7.86509 118.896 8.09257 119.299 8.48891C119.701 8.88525 119.937 9.42048 119.958 9.98505ZM115.844 16.1809C115.844 14.8986 116.66 15.0989 117.792 15.0989C118.925 15.0989 119.724 14.8986 119.724 16.1809V28.6735C119.724 29.9725 118.908 29.7067 117.792 29.7067C116.677 29.7067 115.844 29.9725 115.844 28.6735V16.1809ZM123.09 16.1825C123.09 15.4657 123.355 15.1982 123.771 15.1157C124.188 15.0316 125.62 15.1157 126.12 15.1157C126.62 15.1157 126.82 15.9318 126.803 16.5477C127.231 15.9741 127.798 15.5198 128.451 15.2281C129.105 14.9364 129.822 14.8172 130.534 14.8818C131.234 14.8391 131.934 14.944 132.591 15.1897C133.247 15.4355 133.845 15.8165 134.344 16.3081C134.844 16.7998 135.234 17.391 135.49 18.0433C135.747 18.6957 135.863 19.3947 135.831 20.0949V28.623C135.831 29.9221 135.032 29.6562 133.898 29.6562C132.765 29.6562 131.966 29.9221 131.966 28.623V21.961C131.995 21.6182 131.951 21.2731 131.835 20.9491C131.719 20.6252 131.535 20.3299 131.295 20.0834C131.054 19.837 130.764 19.6451 130.443 19.5207C130.122 19.3964 129.779 19.3426 129.435 19.3629C129.093 19.3539 128.753 19.4177 128.437 19.5501C128.122 19.6826 127.838 19.8806 127.605 20.131C127.371 20.3815 127.194 20.6787 127.084 21.0029C126.975 21.3271 126.935 21.6709 126.968 22.0115V28.6735C126.968 29.9725 126.152 29.7067 125.02 29.7067C123.887 29.7067 123.088 29.9725 123.088 28.6735V16.1809L123.09 16.1825Z" fill="#E63846"/>
</g>
<g id="Group 1000003279">
<path id="Vector 346_2" d="M193.265 0H160.109V32.9398L165.344 38.3912L198.5 38.3912V4.26202L193.265 0Z" fill="white"/>
<g id="Group 1000003278">
<path id="Vector_6" fill-rule="evenodd" clip-rule="evenodd" d="M179.304 11.3433C180.125 11.3433 180.967 11.3649 181.783 11.4002L182.746 11.4473L183.669 11.5033L184.532 11.5631L185.321 11.626C186.177 11.693 186.983 12.0666 187.596 12.6812C188.21 13.2958 188.592 14.1119 188.675 14.986L188.713 15.4031L188.785 16.2964C188.852 17.222 188.902 18.2311 188.902 19.196C188.902 20.1609 188.852 21.17 188.785 22.0956L188.713 22.9889C188.701 23.1322 188.688 23.2706 188.675 23.4061C188.592 24.2803 188.21 25.0965 187.596 25.7111C186.983 26.3257 186.177 26.6993 185.32 26.7661L184.533 26.8279L183.67 26.8888L182.746 26.9447L181.783 26.9918C180.957 27.0285 180.131 27.0475 179.304 27.0488C178.478 27.0475 177.652 27.0285 176.826 26.9918L175.863 26.9447L174.94 26.8888L174.077 26.8279L173.288 26.7661C172.431 26.699 171.626 26.3254 171.012 25.7108C170.399 25.0962 170.017 24.2801 169.934 23.4061L169.896 22.9889L169.824 22.0956C169.75 21.1309 169.711 20.1637 169.707 19.196C169.707 18.2311 169.757 17.222 169.824 16.2964L169.896 15.4031C169.908 15.2598 169.921 15.1214 169.934 14.986C170.017 14.112 170.399 13.2961 171.012 12.6815C171.625 12.067 172.431 11.6932 173.287 11.626L174.075 11.5631L174.938 11.5033L175.862 11.4473L176.825 11.4002C177.651 11.3635 178.478 11.3445 179.304 11.3433ZM177.385 16.8156V21.5764C177.385 22.0299 177.865 22.3126 178.249 22.0868L182.28 19.7064C182.367 19.6548 182.44 19.5804 182.491 19.4908C182.542 19.4012 182.568 19.2995 182.568 19.196C182.568 19.0925 182.542 18.9908 182.491 18.9012C182.44 18.8116 182.367 18.7372 182.28 18.6856L178.249 16.3062C178.161 16.2545 178.062 16.2273 177.961 16.2273C177.86 16.2273 177.76 16.2546 177.673 16.3063C177.585 16.358 177.512 16.4324 177.462 16.522C177.411 16.6116 177.385 16.7132 177.385 16.8166V16.8156Z" fill="#E63846"/>
</g>
</g>
</g>
</svg>
